<?xml version="1.0" encoding="utf-8"?>
<!-- Generator: Adobe Illustrator 27.0.1, SVG Export Plug-In . SVG Version: 6.00 Build 0)  -->
<svg version="1.0" id="Layer_1" xmlns="http://www.w3.org/2000/svg" xmlns:xlink="http://www.w3.org/1999/xlink" width="300" height="300" viewBox="0 0 643.25 463.49">
<g>
	<g>
		<path fill="#ee01cf" d="M190.48,188.12c0,18.07-12.66,30.57-35.51,30.57h-48.48V111.38h50.49c18.07,0,29.8,10.04,29.8,26.09
			c0,10.19-5.4,18.84-14.05,23.93C184,166.5,190.48,176.07,190.48,188.12z M148.95,132.07h-16.98v21.46h16.83
			c7.41,0,12.2-4.32,12.2-10.81C160.99,136.24,156.98,132.07,148.95,132.07z M164.7,185.95c0-7.72-5.4-11.89-13.74-11.89h-18.99V198
			h19.15C159.75,198,164.7,193.67,164.7,185.95z"/>
		<path fill="#ee01cf" d="M197.56,178.08c0-24.4,18.53-42.62,44.47-42.62c26.09,0,44.62,18.22,44.62,42.62c0,24.24-18.53,42.62-44.62,42.62
			C216.09,220.69,197.56,202.32,197.56,178.08z M260.72,177.93c0-11.58-7.26-19.61-18.53-19.61s-18.68,8.03-18.68,19.76
			c0,11.43,7.41,19.76,18.68,19.76C253.3,197.84,260.72,189.66,260.72,177.93z"/>
		<path fill="#ee01cf" d="M290.08,198.92l21.31-8.18c2.16,6.79,7.57,10.65,15.9,10.65c5.87,0,8.96-2.32,8.96-6.02c0-12.82-42.46-6.64-42.46-34.59
			c0-15.75,12.97-25.32,33.51-25.32c16.68,0,28.72,6.64,31.96,18.07l-21.31,8.34c-1.85-5.1-5.71-7.72-11.12-7.72
			c-5.25,0-7.87,2.01-7.87,5.4c0,11.58,42.46,4.17,42.46,34.12c0,16.83-13.59,27.02-35.05,27.02
			C307.99,220.69,294.87,213.13,290.08,198.92z"/>
		<path fill="#ee01cf" d="M422.83,218.69l-25.94-35.82v35.82h-25.79V105.82h25.79v62.38l24.86-30.88h28.56l-30.26,37.52l30.57,43.85H422.83z"/>
		<path fill="#ee01cf" d="M447.26,178.08c0-24.4,18.53-42.62,44.47-42.62c26.09,0,44.62,18.22,44.62,42.62c0,24.24-18.53,42.62-44.62,42.62
			C465.79,220.69,447.26,202.32,447.26,178.08z M510.41,177.93c0-11.58-7.26-19.61-18.53-19.61s-18.68,8.03-18.68,19.76
			c0,11.43,7.41,19.76,18.68,19.76C503,197.84,510.41,189.66,510.41,177.93z"/>
	</g>
	<rect fill="#ee01cf" x="306.12" y="126.16" transform="matrix(6.123234e-17 -1 1 6.123234e-17 -19.6762 662.5106)" width="30.6" height="429.86"/>
</g>
</svg>
