<svg xmlns="http://www.w3.org/2000/svg" version="1.1"
 width="300" height="300" style="shape-rendering:geometricPrecision; text-rendering:geometricPrecision; image-rendering:optimizeQuality; fill-rule:evenodd; clip-rule:evenodd" xmlns:xlink="http://www.w3.org/2000/xlink"
 viewBox="100 0 1143.25 463.49"
preserveAspectRatio="xMidYMid meet">
<g><path style="opacity:0.952" fill="#d01c1b" d="M 138.5,75.5 C 144.5,75.5 150.5,75.5 156.5,75.5C 156.5,86.1667 156.5,96.8333 156.5,107.5C 166.833,107.5 177.167,107.5 187.5,107.5C 187.5,96.8333 187.5,86.1667 187.5,75.5C 193.5,75.5 199.5,75.5 205.5,75.5C 205.5,86.1667 205.5,96.8333 205.5,107.5C 215.167,107.5 224.833,107.5 234.5,107.5C 234.5,113.167 234.5,118.833 234.5,124.5C 224.833,124.5 215.167,124.5 205.5,124.5C 205.5,135.167 205.5,145.833 205.5,156.5C 215.167,156.5 224.833,156.5 234.5,156.5C 234.5,162.5 234.5,168.5 234.5,174.5C 224.833,174.5 215.167,174.5 205.5,174.5C 205.5,184.5 205.5,194.5 205.5,204.5C 199.5,204.5 193.5,204.5 187.5,204.5C 187.5,194.5 187.5,184.5 187.5,174.5C 176.828,174.333 166.161,174.5 155.5,175C 150.206,184.42 145.04,193.92 140,203.5C 133.223,204.811 126.39,204.811 119.5,203.5C 124.633,193.872 129.966,184.372 135.5,175C 125.839,174.5 116.172,174.334 106.5,174.5C 106.5,168.5 106.5,162.5 106.5,156.5C 117.167,156.5 127.833,156.5 138.5,156.5C 138.5,145.833 138.5,135.167 138.5,124.5C 127.833,124.5 117.167,124.5 106.5,124.5C 106.5,118.833 106.5,113.167 106.5,107.5C 117.167,107.5 127.833,107.5 138.5,107.5C 138.5,96.8333 138.5,86.1667 138.5,75.5 Z M 156.5,124.5 C 166.833,124.5 177.167,124.5 187.5,124.5C 187.5,135.167 187.5,145.833 187.5,156.5C 177.167,156.5 166.833,156.5 156.5,156.5C 156.5,145.833 156.5,135.167 156.5,124.5 Z"/></g>
<g><path style="opacity:0.936" fill="#000000" d="M 280.5,75.5 C 309.5,75.5 338.5,75.5 367.5,75.5C 367.5,80.5 367.5,85.5 367.5,90.5C 338.5,90.5 309.5,90.5 280.5,90.5C 280.5,85.5 280.5,80.5 280.5,75.5 Z"/></g>
<g><path style="opacity:0.972" fill="#000000" d="M 392.5,75.5 C 398.167,75.5 403.833,75.5 409.5,75.5C 409.062,107.196 409.562,138.862 411,170.5C 413.771,181.653 420.938,187.82 432.5,189C 442.975,190.096 453.308,189.429 463.5,187C 472.623,182.854 477.456,175.687 478,165.5C 478.5,135.502 478.667,105.502 478.5,75.5C 484.167,75.5 489.833,75.5 495.5,75.5C 495.667,106.835 495.5,138.168 495,169.5C 492.331,189.17 481.164,200.67 461.5,204C 442.659,207.695 424.659,205.361 407.5,197C 399.17,190.509 394.337,182.009 393,171.5C 392.5,139.502 392.333,107.502 392.5,75.5 Z"/></g>
<g><path style="opacity:0.923" fill="#000000" d="M 517.5,75.5 C 550.833,75.5 584.167,75.5 617.5,75.5C 617.5,80.5 617.5,85.5 617.5,90.5C 603.833,90.5 590.167,90.5 576.5,90.5C 576.5,128.167 576.5,165.833 576.5,203.5C 570.5,203.5 564.5,203.5 558.5,203.5C 558.5,165.833 558.5,128.167 558.5,90.5C 544.833,90.5 531.167,90.5 517.5,90.5C 517.5,85.5 517.5,80.5 517.5,75.5 Z"/></g>
<g><path style="opacity:0.956" fill="#000000" d="M 639.5,75.5 C 645.5,75.5 651.5,75.5 657.5,75.5C 657.029,107.883 657.529,140.216 659,172.5C 662.251,182.415 669.085,187.915 679.5,189C 688.886,189.853 698.219,189.519 707.5,188C 716.333,185.833 721.833,180.333 724,171.5C 725.463,139.541 725.963,107.541 725.5,75.5C 731.167,75.5 736.833,75.5 742.5,75.5C 742.667,107.502 742.5,139.502 742,171.5C 739.18,190.32 728.346,201.154 709.5,204C 695.768,206.203 682.101,205.87 668.5,203C 651.878,198.379 642.378,187.546 640,170.5C 639.5,138.835 639.333,107.168 639.5,75.5 Z"/></g>
<g><path style="opacity:0.952" fill="#000000" d="M 776.5,75.5 C 798.503,75.3334 820.503,75.5 842.5,76C 868.575,79.9287 879.742,95.0953 876,121.5C 874.395,138.769 865.228,149.602 848.5,154C 859.167,170.333 869.833,186.667 880.5,203C 874.167,203.667 867.833,203.667 861.5,203C 851.291,187.414 840.957,171.914 830.5,156.5C 818.185,155.501 805.851,155.168 793.5,155.5C 793.5,171.5 793.5,187.5 793.5,203.5C 787.833,203.5 782.167,203.5 776.5,203.5C 776.5,182.167 776.5,160.833 776.5,139.5C 799.219,139.958 821.886,139.458 844.5,138C 854.75,133.849 859.416,126.182 858.5,115C 859.495,103.304 854.495,95.637 843.5,92C 821.211,90.5543 798.878,90.0543 776.5,90.5C 776.5,85.5 776.5,80.5 776.5,75.5 Z"/></g>
<g><path style="opacity:0.951" fill="#000000" d="M 903.5,75.5 C 909.5,75.5 915.5,75.5 921.5,75.5C 921.333,105.169 921.5,134.835 922,164.5C 922.213,175.117 927.046,182.617 936.5,187C 946.692,189.429 957.025,190.096 967.5,189C 978.716,187.446 985.882,181.279 989,170.5C 990.447,138.865 990.947,107.199 990.5,75.5C 996.167,75.5 1001.83,75.5 1007.5,75.5C 1007.67,106.502 1007.5,137.502 1007,168.5C 1005.5,186.658 996.005,198.158 978.5,203C 964.899,205.87 951.232,206.203 937.5,204C 915.824,199.315 904.658,185.815 904,163.5C 903.5,134.169 903.333,104.835 903.5,75.5 Z"/></g>
<g><path style="opacity:0.977" fill="#000000" d="M 1041.5,75.5 C 1049.86,75.1688 1058.19,75.5021 1066.5,76.5C 1080.15,104.955 1093.32,133.622 1106,162.5C 1118.45,133.596 1131.45,104.929 1145,76.5C 1153.41,75.5168 1161.91,75.1834 1170.5,75.5C 1170.5,118.167 1170.5,160.833 1170.5,203.5C 1164.83,203.5 1159.17,203.5 1153.5,203.5C 1153.67,167.498 1153.5,131.498 1153,95.5C 1140.61,123.286 1127.94,150.953 1115,178.5C 1108.67,179.833 1102.33,179.833 1096,178.5C 1083.06,150.953 1070.39,123.286 1058,95.5C 1057.5,131.498 1057.33,167.498 1057.5,203.5C 1052.17,203.5 1046.83,203.5 1041.5,203.5C 1041.5,160.833 1041.5,118.167 1041.5,75.5 Z"/></g>
<g><path style="opacity:0.931" fill="#000000" d="M 280.5,132.5 C 307.5,132.5 334.5,132.5 361.5,132.5C 361.5,137.5 361.5,142.5 361.5,147.5C 340.5,147.5 319.5,147.5 298.5,147.5C 298.5,166.167 298.5,184.833 298.5,203.5C 292.5,203.5 286.5,203.5 280.5,203.5C 280.5,179.833 280.5,156.167 280.5,132.5 Z"/></g>
<g><path style="opacity:0.89" fill="#000000" d="M 280.5,245.5 C 291.167,245.5 301.833,245.5 312.5,245.5C 312.5,248.167 312.5,250.833 312.5,253.5C 308.5,253.5 304.5,253.5 300.5,253.5C 300.5,263.5 300.5,273.5 300.5,283.5C 297.833,283.5 295.167,283.5 292.5,283.5C 292.5,273.5 292.5,263.5 292.5,253.5C 288.5,253.5 284.5,253.5 280.5,253.5C 280.5,250.833 280.5,248.167 280.5,245.5 Z"/></g>
<g><path style="opacity:0.912" fill="#000000" d="M 375.5,245.5 C 384.833,245.5 394.167,245.5 403.5,245.5C 403.5,248.167 403.5,250.833 403.5,253.5C 396.833,253.5 390.167,253.5 383.5,253.5C 383.5,255.833 383.5,258.167 383.5,260.5C 389.5,260.5 395.5,260.5 401.5,260.5C 401.5,262.833 401.5,265.167 401.5,267.5C 395.5,267.5 389.5,267.5 383.5,267.5C 383.5,270.5 383.5,273.5 383.5,276.5C 390.167,276.5 396.833,276.5 403.5,276.5C 403.5,278.833 403.5,281.167 403.5,283.5C 394.167,283.5 384.833,283.5 375.5,283.5C 375.5,270.833 375.5,258.167 375.5,245.5 Z"/></g>
<g><path style="opacity:0.888" fill="#000000" d="M 477.5,245.5 C 483.593,245.139 489.593,245.639 495.5,247C 495.986,249.027 495.986,251.193 495.5,253.5C 476.101,249.722 470.101,256.889 477.5,275C 483.104,276.781 488.771,276.947 494.5,275.5C 496.003,277.796 496.337,280.129 495.5,282.5C 469.918,287.747 460.751,277.747 468,252.5C 470.393,249.06 473.56,246.726 477.5,245.5 Z"/></g>
<g><path style="opacity:0.87" fill="#000000" d="M 559.5,245.5 C 562.5,245.5 565.5,245.5 568.5,245.5C 568.5,250.5 568.5,255.5 568.5,260.5C 573.5,260.5 578.5,260.5 583.5,260.5C 583.5,255.5 583.5,250.5 583.5,245.5C 586.5,245.5 589.5,245.5 592.5,245.5C 592.5,258.167 592.5,270.833 592.5,283.5C 589.5,283.5 586.5,283.5 583.5,283.5C 583.5,278.167 583.5,272.833 583.5,267.5C 578.5,267.5 573.5,267.5 568.5,267.5C 568.5,272.833 568.5,278.167 568.5,283.5C 565.5,283.5 562.5,283.5 559.5,283.5C 559.5,270.833 559.5,258.167 559.5,245.5 Z"/></g>
<g><path style="opacity:0.896" fill="#000000" d="M 657.5,245.5 C 661.106,245.211 664.606,245.544 668,246.5C 672.667,254.5 677.333,262.5 682,270.5C 682.5,262.173 682.666,253.84 682.5,245.5C 685.167,245.5 687.833,245.5 690.5,245.5C 690.5,258.167 690.5,270.833 690.5,283.5C 686.894,283.789 683.394,283.456 680,282.5C 675.413,274.996 671.08,267.329 667,259.5C 666.5,267.493 666.334,275.493 666.5,283.5C 663.5,283.5 660.5,283.5 657.5,283.5C 657.5,270.833 657.5,258.167 657.5,245.5 Z"/></g>
<g><path style="opacity:0.913" fill="#000000" d="M 766.5,245.5 C 788.101,243.61 796.268,253.277 791,274.5C 787.411,281.55 781.578,284.883 773.5,284.5C 760.41,284.35 754.076,277.683 754.5,264.5C 754.273,255.248 758.273,248.915 766.5,245.5 Z M 769.5,252.5 C 781.852,252.22 786.352,258.22 783,270.5C 779.1,277.463 773.6,278.963 766.5,275C 762.718,268.615 762.552,262.115 766,255.5C 767.145,254.364 768.312,253.364 769.5,252.5 Z"/></g>
<g><path style="opacity:0.935" fill="#000000" d="M 856.5,245.5 C 859.167,245.5 861.833,245.5 864.5,245.5C 864.5,255.833 864.5,266.167 864.5,276.5C 870.833,276.5 877.167,276.5 883.5,276.5C 883.5,278.833 883.5,281.167 883.5,283.5C 874.5,283.5 865.5,283.5 856.5,283.5C 856.5,270.833 856.5,258.167 856.5,245.5 Z"/></g>
<g><path style="opacity:0.911" fill="#000000" d="M 956.5,245.5 C 975.816,243.649 983.982,252.316 981,271.5C 978.447,280.455 972.447,284.789 963,284.5C 950.321,284.155 944.155,277.655 944.5,265C 943.616,255.232 947.616,248.732 956.5,245.5 Z M 959.5,252.5 C 965.242,251.456 969.409,253.456 972,258.5C 972.667,262.833 972.667,267.167 972,271.5C 967.112,278.543 961.445,279.21 955,273.5C 951.667,267.5 951.667,261.5 955,255.5C 956.409,254.219 957.909,253.219 959.5,252.5 Z"/></g>
<g><path style="opacity:0.887" fill="#000000" d="M 1056.5,245.5 C 1063.24,245.171 1069.91,245.671 1076.5,247C 1076.78,248.956 1076.78,251.123 1076.5,253.5C 1070.1,252.19 1063.77,252.357 1057.5,254C 1052.13,259.883 1051.29,266.383 1055,273.5C 1059.79,276.891 1064.95,277.891 1070.5,276.5C 1070.5,274.167 1070.5,271.833 1070.5,269.5C 1067.5,269.5 1064.5,269.5 1061.5,269.5C 1061.5,267.167 1061.5,264.833 1061.5,262.5C 1067.17,262.5 1072.83,262.5 1078.5,262.5C 1078.81,269.09 1078.48,275.59 1077.5,282C 1048.96,288.801 1039.13,278.301 1048,250.5C 1050.68,248.415 1053.52,246.748 1056.5,245.5 Z"/></g>
<g><path style="opacity:0.885" fill="#000000" d="M 1138.5,245.5 C 1141.52,245.335 1144.52,245.502 1147.5,246C 1150.71,250.926 1153.55,256.093 1156,261.5C 1159.29,256.417 1162.46,251.25 1165.5,246C 1168.15,245.503 1170.81,245.336 1173.5,245.5C 1169.89,253.389 1165.72,261.056 1161,268.5C 1160.5,273.489 1160.33,278.489 1160.5,283.5C 1157.5,283.5 1154.5,283.5 1151.5,283.5C 1151.67,278.489 1151.5,273.489 1151,268.5C 1146.58,260.926 1142.41,253.259 1138.5,245.5 Z"/></g>
</svg>
